# xmcd
#
# Track frame offsets:
#	150
#	19197
#	45345
#	74421
#	97482
#	116870
#	141158
#	161070
#
# Disc length: 2445 seconds
#
# Revision: 1
# Processed by: cddbd v1.4PL0 Copyright (c) Steve Scherf et al.
# Submitted via: audiograbber 1.82.00
#
DISCID=75098b08
DTITLE=Asala - Mouchtaka
DYEAR=1900
DGENRE=
TTITLE0=Mouchtaka
TTITLE1=Ya 3eni
TTITLE2=Ma B2ach Ana
TTITLE3=Mou3jaba Fik
TTITLE4=E3tef Habibi
TTITLE5=Moukhade3
TTITLE6=Mich Bi Mawa3idi
TTITLE7=Fok Min Wahmak
EXTD=
EXTT0=
EXTT1=
EXTT2=
EXTT3=
EXTT4=
EXTT5=
EXTT6=
EXTT7=
PLAYORDER=
